<?xml version="1.0" encoding="utf-8"?>
<svg version="1.1" xmlns="http://www.w3.org/2000/svg" xmlns:xlink="http://www.w3.org/1999/xlink" viewBox="0 0 221 54" xml:space="preserve">
<g>
	<path d="M70.9,5.7C69.7,5,68.5,5.2,67.3,6c-1.5,1.1-1.8,3.2-0.6,4.6c0.4,0.5,1,0.9,1.6,1.3c0.9,0.6,1.6,1.4,1.5,2.5
		c0,0.9-0.6,1.5-1.2,2.1c-0.7,0.7-1.5,1.3-2.3,2.1c0.2-0.1,0.3-0.2,0.4-0.2c1.6-1,2.9-2.2,3.9-3.8c1.1-1.7,2-3.5,2.1-5.6
		C72.8,7.5,72.2,6.4,70.9,5.7z" fill="#fff"/>
	<path d="M106.3,48.8c-0.5-2-0.6-4.1-0.6-6.1c0-14,0-28,0-41.9c0-0.2,0-0.4,0-0.7c-0.1,0.1-0.2,0.1-0.3,0.2
		c-1.6,1.5-3.1,2.9-4.7,4.4c-0.1,0.1-0.2,0.4-0.2,0.5c-0.1,4.8-0.1,9.5-0.1,14.3c0,0.8,0,1.7,0,2.6c-0.5-0.2-0.8-0.4-1.1-0.5
		c-2.5-1.3-5.2-2.1-8-2.4c-2.8-0.2-5.6,0.2-8.1,1.5c-2.5,1.3-4.6,2.9-6.5,5c-2.3,2.7-3.9,5.8-4.4,9.3c-0.3,2.3-0.3,4.5,0.3,6.8
		c0.6,2.2,1.6,4.2,2.9,6c1,1.5,2.4,2.8,3.9,3.8c3.6,2.2,7.4,2.6,11.5,1.8c3.1-0.6,5.8-2.1,8-4.5c0.4-0.5,0.9-1,1.3-1.6
		c0.1,0.2,0.1,0.4,0.1,0.5c0.3,1.3,0.9,2.5,1.9,3.3c2.1,1.6,4.6,1.8,7.2,1.9c-0.4-0.2-0.7-0.3-0.9-0.5
		C107.2,51.7,106.7,50.3,106.3,48.8z M100.2,45.7c0,0.2-0.1,0.5-0.3,0.7c-1.5,2-3.4,3.5-5.9,4.2c-1.7,0.5-3.5,0.5-5.2,0.2
		c-2.5-0.4-4.7-1.6-6.6-3.4c-1.5-1.4-2.7-2.9-3.6-4.7c-0.9-1.8-1.5-3.7-1.8-5.7c-0.3-2.2-0.3-4.3,0.1-6.5c0.4-2.2,1.5-4,3-5.6
		c1.4-1.5,3-2.6,5-3c2.8-0.6,5.5-0.3,8.1,0.9c2.7,1.2,5,2.9,7,5.1c0.2,0.2,0.3,0.5,0.3,0.7C100.4,31.4,100.2,42.8,100.2,45.7z" fill="#fff"/>
	<path d="M145.1,49.9c-0.8-2.2-0.9-4.4-0.9-6.7c0-14.1,0-28.3,0-42.4c0-0.2,0-0.4,0-0.8c-1.7,1.6-3.4,3.1-5,4.7
		C139.1,4.8,139,5,139,5.2c0,3.5-0.1,7-0.1,10.4c0,2.1,0,4.2,0,6.4c-0.1,0-0.1,0-0.2,0.1c-0.3-0.1-0.6-0.3-0.9-0.4
		c-2.2-1.1-4.6-2-7.1-2.3c-3.3-0.4-6.5-0.1-9.6,1.5c-1.6,0.9-3.2,1.9-4.5,3.2c-3.1,2.9-5.3,6.4-5.9,10.7c-0.3,2.1-0.4,4.1,0.1,6.2
		c0.5,2.5,1.7,4.7,3.1,6.8c1.6,2.5,3.9,4.1,6.6,5.1c2.4,0.9,4.9,1,7.4,0.7c3.7-0.5,6.9-2,9.4-4.8c0.4-0.5,0.8-1,1.3-1.5
		c0.1,0.2,0.1,0.4,0.1,0.6c0.3,1.4,1,2.5,2.1,3.3c2.1,1.5,4.5,1.7,6.9,1.8C146.3,52.4,145.5,51.1,145.1,49.9z M138.6,45.8
		c0,0.3-0.3,0.7-0.5,0.9c-1.4,1.8-3.1,3.1-5.3,3.8c-1.8,0.6-3.7,0.6-5.5,0.2c-2.5-0.4-4.6-1.6-6.5-3.3c-1.6-1.5-2.9-3.1-3.8-5.1
		c-1.3-2.8-1.9-5.8-1.8-8.9c0.1-2.1,0.3-4.1,1.4-5.9c1.5-2.6,3.5-4.6,6.4-5.5c1.9-0.6,3.8-0.5,5.8-0.2c2.3,0.4,4.4,1.4,6.2,2.8
		c1.3,1,2.4,2.1,3.6,3.2c0.2,0.2,0.2,0.5,0.2,0.8C138.8,31.5,138.6,42.9,138.6,45.8z" fill="#fff"/>
	<path d="M157.2,20.2c-0.1,0-0.2,0-0.3,0c-1.7,0-3.3,0-5,0c0,0.3,0,0.5,0,0.7c0,9.2,0,18.5,0,27.7c0,0.4,0,0.8-0.1,1.2
		c-0.1,1.1-0.1,2.1-0.2,3.3c1,0,2,0,3,0c1,0,1.9,0,2.8,0C157.1,42,157.4,31.1,157.2,20.2z" fill="#fff"/>
	<path d="M217.3,50.6c-1.9,1.1-4,1.6-6.3,1.2c-1.9-0.3-3.4-1.6-3.7-3.5c-0.2-1.2-0.2-2.4-0.2-3.5c0-4.6,0.1-9.3,0.1-13.9
		c0-2.1,0-4.1,0-6.2c0-0.2,0-0.5,0.1-0.7c0.3,0,0.5,0,0.7,0c3,0,6.1,0,9.1,0c0.2,0,0.5-0.1,0.7-0.3c0.6-0.7,1.2-1.4,1.8-2.1
		c0.4-0.5,0.8-0.9,1.3-1.5c-4.6,0-9.1,0-13.6,0c0-2.6,0-5.2,0-7.9c-3.2,4-6.4,7.8-9.6,11.8c1.5,0,2.9,0,4.3,0c0,0.3,0,0.5,0,0.7
		c0,6.3,0,12.6,0,18.9c0,1,0,2.1,0.2,3.1c0.6,3.1,2.2,5.3,5.2,6.4c1.4,0.5,2.9,0.6,4.4,0.5c1.9-0.1,3.7-0.6,5.5-1.8
		c1.5-0.9,2.8-2.5,3.7-3.8v-0.5C220,48.5,219.1,49.6,217.3,50.6z" fill="#fff"/>
	<path d="M193.7,22.2c-1.3-0.6-2.6-1.3-3.9-1.8c-2.8-1.1-5.8-1.4-8.8-1.1c-3.3,0.3-6.3,1.4-9,3.2c-2.4,1.5-4.3,3.5-5.9,5.9
		c-0.9,1.5-1.9,2.9-2.3,4.6c-0.6,2.2-0.9,4.4-0.7,6.7c0.3,3,1.7,5.6,3.4,8.1c1.8,2.6,4.3,4.4,7.3,5.4c2.8,1,5.8,1,8.7,0.7
		c3.3-0.4,6.1-1.3,8.7-3.4c1-0.8,2-1.7,2.7-2.6v-0.5c-0.9,0.9-2.3,1.9-3.6,2.5c-1.4,0.6-2.6,1.1-4.1,1.2c-2.9,0.3-5.7-0.2-8.3-1.4
		c-2.3-1.1-4.3-2.6-5.9-4.7c-1.6-2.1-2.6-4.5-3.3-7.1c-0.9-3.3-0.9-6.5,0.3-9.7c0.6-1.8,1.7-3.4,3.1-4.7c1.7-1.6,3.8-2,6-1.9
		c3.6,0.2,7,1.3,10.2,2.9c2,1,3.9,2.2,5.7,3.7v-5.7c0,0,0,0,0,0C193.9,22.4,193.8,22.2,193.7,22.2z" fill="#fff"/>
	<path d="M45.1,7.4L45.1,7.4c0-0.6,0-1.3,0-1.9c0-1.9,0-3.6,0-5.2c0-0.2-0.4-0.4-0.6-0.1c-1.5,1.9-6.3,7.8-9,11L23.2,26.4
		c-4.4,0.9-8.3,2.9-11.7,5.8c-1.9,1.7-3.7,3.5-5.3,5.6C3.7,41,1.6,44.5,0.5,48.5c-0.3,1.1-0.4,2.3-0.5,3.4c0,1,0.7,1.5,1.6,1.2
		c0.5-0.2,1.1-0.5,1.5-0.8c0,0,8.6-10.5,17.1-21c0.5,0,1,0,1.5-0.1l3.6-0.1l14.4,0c0,5.4,0,10.2,0,12.3c0,1,0,2.1,0.2,3.1
		c0.6,3.1,2.4,5.3,5.4,6.4c1.4,0.5,2.9,0.6,4.4,0.5c1.9-0.1,3.7-0.6,5.5-1.8c1.5-0.9,2.8-2.5,3.7-3.8v-0.5c-1,1.1-1.9,2.2-3.7,3.2
		c-1.9,1.1-4,1.6-6.3,1.2c-1.9-0.3-3.4-1.6-3.7-3.5C45,47.1,45,45.9,45,44.7c0-1.8,0-7.1,0-13.6c1.7,0,7.1,0,10.6,0
		c0.3,0,0.7-0.1,0.9-0.4c0.9-0.9,1.7-1.9,2.5-2.8c0.6-0.6,1.1-1.3,1.7-2c-5.5,0-13.6,0-15.8,0C45.1,19.8,45.1,13.2,45.1,7.4z
		 M5.3,48.3c0.1-0.4,0.3-0.7,0.4-1.1c1-3.3,2-6.7,2.8-10c0.6-2.4,2.2-3.7,4.3-4.5c2-0.7,4.1-1.1,6.2-1.2c0,0,0.1,0,0.1,0L5.3,48.3z
		 M26.6,26.1c-0.8,0.1-1.5,0.1-2.3,0.2c6.2-7.6,11.6-14.2,12.2-15c1.7-2,3.2-2.3,3.1,0c0,1.1,0,7.7-0.1,14.6L26.6,26.1z" fill="#fff"/>
	<path d="M154.5,5.3c-1.9,0-3.4,1.6-3.4,3.6c0,1.8,1.6,3.4,3.4,3.3c2-0.1,3.5-1.5,3.5-3.5C157.9,6.8,156.4,5.3,154.5,5.3z" fill="#fff"/>
</g>
</svg>
